<svg xmlns="http://www.w3.org/2000/svg" xmlns:xlink="http://www.w3.org/1999/xlink" version="1.1" width="500" height="500" viewBox="0 0 500 500" xml:space="preserve">
<desc>Created with Fabric.js 3.6.3</desc>
<defs>
</defs>
<g transform="matrix(1 0 0 1 250 250)"  >
<rect style="stroke: none; stroke-width: 1; stroke-dasharray: none; stroke-linecap: butt; stroke-dashoffset: 0; stroke-linejoin: miter; stroke-miterlimit: 4; fill: rgb(255,255,255); fill-rule: nonzero; opacity: 1;"  x="-250" y="-250" rx="0" ry="0" width="500" height="500" />
</g>
<g transform="matrix(2.8 0 0 2.8 250 187)"  >
<rect style="stroke: none; stroke-width: 0; stroke-dasharray: none; stroke-linecap: butt; stroke-dashoffset: 0; stroke-linejoin: miter; stroke-miterlimit: 4; fill: #FF0000; fill-rule: nonzero; opacity: 1;"  x="-25" y="-25" rx="0" ry="0" width="50" height="50" />
</g>
<g transform="matrix(1 0 0 1 250.25 192.50250293439112)" style=""  ><path fill="#ffffff" opacity="1" d="M-31.82-3.35L-31.82-3.35Q-31.82-9.01-29.96-14.10Q-28.10-19.19-24.82-23.26Q-21.55-27.33-17.04-30.21Q-12.52-33.09-7.21-34.33L-7.21-34.33L-7.21-36.54Q-7.21-40.08-5.09-41.94Q-2.96-43.80 0.04-43.80L0.04-43.80Q2.96-43.80 5.13-41.94Q7.30-40.08 7.30-36.54L7.30-36.54L7.30-34.33Q12.61-33.09 17.08-30.21Q21.55-27.33 24.82-23.22Q28.10-19.10 29.96-14.01Q31.82-8.93 31.82-3.35L31.82-3.35Q31.82 2.31 29.96 7.40Q28.10 12.49 24.82 16.56Q21.55 20.63 17.08 23.46Q12.61 26.30 7.30 27.54L7.30 27.54L7.30 29.84Q7.30 33.38 5.13 35.24Q2.96 37.09 0.04 37.09L0.04 37.09Q-2.96 37.09-5.09 35.24Q-7.21 33.38-7.21 29.84L-7.21 29.84L-7.21 27.62Q-12.52 26.39-17.04 23.55Q-21.55 20.72-24.82 16.65Q-28.10 12.58-29.96 7.49Q-31.82 2.40-31.82-3.35ZM14.56-3.09L14.56-3.09Q14.56-7.42 12.30-10.87Q10.04-14.32 6.50-16.09L6.50-16.09L6.50 9.75Q10.04 8.07 12.30 4.66Q14.56 1.25 14.56-3.09ZM-14.38-3.09L-14.38-3.09Q-14.38 1.25-12.21 4.61Q-10.04 7.98-6.33 9.75L-6.33 9.75L-6.33-16.01Q-10.04-14.24-12.21-10.83Q-14.38-7.42-14.38-3.09Z"/></g><g transform="matrix(1 0 0 1 241.5 372.7605)" style=""  ><path fill="#000000" opacity="1" d=""/></g><g transform="matrix(1 0 0 1 250.25 250.25)" style=""  ><path fill="#000000" opacity="1" d=""/></g><g transform="matrix(0.02752798408618407 0 0 0.02752798408618407 291.1391093965554 132.99674707904967)"  >
	<image style="stroke: none; stroke-width: 0; stroke-dasharray: none; stroke-linecap: butt; stroke-dashoffset: 0; stroke-linejoin: miter; stroke-miterlimit: 4; fill: rgb(0,0,0); fill-rule: nonzero; opacity: 1;"  xlink:href="https://uploads.turbologo.ru/uploads/upload/image/836863/regular_0f717937-7926-427d-b22d-4a06b762dc2b.png" x="-840" y="-378" width="1680" height="756"></image>
</g>
<g transform="matrix(0.02752798408618407 0 0 0.02752798408618407 291.13910939655545 152.4055809189687)"  >
	<image style="stroke: none; stroke-width: 0; stroke-dasharray: none; stroke-linecap: butt; stroke-dashoffset: 0; stroke-linejoin: miter; stroke-miterlimit: 4; fill: rgb(0,0,0); fill-rule: nonzero; opacity: 1;"  xlink:href="https://uploads.turbologo.ru/uploads/upload/image/836863/regular_0f717937-7926-427d-b22d-4a06b762dc2b.png" x="-840" y="-378" width="1680" height="756"></image>
</g>
</svg>