<?xml version="1.0" encoding="UTF-8" standalone="no" ?>
<!DOCTYPE svg PUBLIC "-//W3C//DTD SVG 1.1//EN" "http://www.w3.org/Graphics/SVG/1.1/DTD/svg11.dtd">
<svg xmlns="http://www.w3.org/2000/svg" xmlns:xlink="http://www.w3.org/1999/xlink" version="1.1" width="500" height="500" viewBox="0 0 500 500" xml:space="preserve">
<desc>Created with Fabric.js 3.6.3</desc>
<defs>
</defs>
<g transform="matrix(1 0 0 1 250 250)"  >
<rect style="stroke: none; stroke-width: 1; stroke-dasharray: none; stroke-linecap: butt; stroke-dashoffset: 0; stroke-linejoin: miter; stroke-miterlimit: 4; fill: rgb(255,255,255); fill-rule: nonzero; opacity: 1;"  x="-250" y="-250" rx="0" ry="0" width="500" height="500" />
</g>
<g transform="matrix(2.2622920718552963 0 0 2.2200065143482917 251.2740703383233 203.64086749742216)"  >
<rect style="stroke: none; stroke-width: 0; stroke-dasharray: none; stroke-linecap: butt; stroke-dashoffset: 0; stroke-linejoin: miter; stroke-miterlimit: 4; fill: #FF0000; fill-rule: nonzero; opacity: 1;"  x="-25" y="-25" rx="0" ry="0" width="50" height="50" />
</g>
<g transform="matrix(1 0 0 1 251.52407033832333 206.11666917704846)" style=""  ><path fill="#ffffff" opacity="1" d="M-26.67-2.81L-26.67-2.81Q-26.67-7.56-25.12-11.82Q-23.56-16.09-20.81-19.50Q-18.07-22.92-14.28-25.33Q-10.50-27.74-6.05-28.78L-6.05-28.78L-6.05-30.63Q-6.05-33.60-4.27-35.16Q-2.49-36.72 0.04-36.72L0.04-36.72Q2.49-36.72 4.30-35.16Q6.12-33.60 6.12-30.63L6.12-30.63L6.12-28.78Q10.57-27.74 14.32-25.33Q18.07-22.92 20.81-19.47Q23.56-16.02 25.12-11.75Q26.67-7.48 26.67-2.81L26.67-2.81Q26.67 1.94 25.12 6.21Q23.56 10.47 20.81 13.89Q18.07 17.30 14.32 19.67Q10.57 22.05 6.12 23.09L6.12 23.09L6.12 25.02Q6.12 27.98 4.30 29.54Q2.49 31.10 0.04 31.10L0.04 31.10Q-2.49 31.10-4.27 29.54Q-6.05 27.98-6.05 25.02L-6.05 25.02L-6.05 23.16Q-10.50 22.12-14.28 19.75Q-18.07 17.37-20.81 13.96Q-23.56 10.55-25.12 6.28Q-26.67 2.01-26.67-2.81ZM12.21-2.59L12.21-2.59Q12.21-6.22 10.31-9.12Q8.42-12.01 5.45-13.49L5.45-13.49L5.45 8.17Q8.42 6.76 10.31 3.91Q12.21 1.05 12.21-2.59ZM-12.06-2.59L-12.06-2.59Q-12.06 1.05-10.24 3.87Q-8.42 6.69-5.31 8.17L-5.31 8.17L-5.31-13.42Q-8.42-11.94-10.24-9.08Q-12.06-6.22-12.06-2.59Z"/></g><g transform="matrix(1 0 0 1 251.5240703383233 281.1916443619198)" style=""  ><path fill="#000000" opacity="1" d="M-151.10-0.67L-151.10-0.67Q-151.10-1.81-150.72-2.83Q-150.35-3.85-149.69-4.67Q-149.04-5.48-148.13-6.06Q-147.23-6.64-146.16-6.88L-146.16-6.88L-146.16-7.33Q-146.16-8.04-145.74-8.41Q-145.31-8.78-144.71-8.78L-144.71-8.78Q-144.12-8.78-143.69-8.41Q-143.25-8.04-143.25-7.33L-143.25-7.33L-143.25-6.88Q-142.19-6.64-141.29-6.06Q-140.39-5.48-139.74-4.66Q-139.08-3.83-138.71-2.81Q-138.33-1.79-138.33-0.67L-138.33-0.67Q-138.33 0.46-138.71 1.48Q-139.08 2.51-139.74 3.32Q-140.39 4.14-141.29 4.71Q-142.19 5.27-143.25 5.52L-143.25 5.52L-143.25 5.98Q-143.25 6.69-143.69 7.07Q-144.12 7.44-144.71 7.44L-144.71 7.44Q-145.31 7.44-145.74 7.07Q-146.16 6.69-146.16 5.98L-146.16 5.98L-146.16 5.54Q-147.23 5.29-148.13 4.72Q-149.04 4.16-149.69 3.34Q-150.35 2.52-150.72 1.50Q-151.10 0.48-151.10-0.67ZM-141.80-0.62L-141.80-0.62Q-141.80-1.49-142.25-2.18Q-142.70-2.87-143.41-3.23L-143.41-3.23L-143.41 1.95Q-142.70 1.62-142.25 0.93Q-141.80 0.25-141.80-0.62ZM-147.60-0.62L-147.60-0.62Q-147.60 0.25-147.17 0.93Q-146.73 1.60-145.98 1.95L-145.98 1.95L-145.98-3.21Q-146.73-2.86-147.17-2.17Q-147.60-1.49-147.60-0.62Z"/><path fill="#000000" opacity="1" d="M-132.35-1.81L-133.26 0.45L-131.59 0.45L-132.35-1.81ZM-130.15 4.53L-130.65 3.16L-134.34 3.16L-134.89 4.53Q-135.14 5.10-135.55 5.37Q-135.96 5.65-136.40 5.65L-136.40 5.65Q-136.75 5.65-137.08 5.53Q-137.41 5.42-137.68 5.20Q-137.94 4.99-138.10 4.69Q-138.26 4.39-138.26 4.01L-138.26 4.01Q-138.26 3.59-138.14 3.32L-138.14 3.32L-133.91-5.94Q-133.70-6.41-133.36-6.69Q-133.03-6.97-132.32-6.97L-132.32-6.97Q-131.64-6.97-131.30-6.69Q-130.95-6.41-130.76-5.93L-130.76-5.93L-126.90 3.32Q-126.78 3.64-126.78 4.01L-126.78 4.01Q-126.78 4.37-126.94 4.67Q-127.10 4.97-127.36 5.19Q-127.61 5.40-127.95 5.52Q-128.29 5.65-128.63 5.65L-128.63 5.65Q-129.16 5.65-129.56 5.37Q-129.96 5.10-130.15 4.53L-130.15 4.53Z"/><path fill="#000000" opacity="1" d="M-124.01 5.58L-124.01 5.58Q-125.68 5.58-125.68 3.84L-125.68 3.84L-125.68-5.18Q-125.68-6.92-123.97-6.92L-123.97-6.92L-120.39-6.92Q-119.59-6.92-119.17-6.41Q-118.76-5.89-118.76-5.18L-118.76-5.18Q-118.76-4.47-119.17-3.96Q-119.59-3.46-120.39-3.46L-120.39-3.46L-122.22-3.46L-122.22 2.29L-120.35 2.29Q-119.80 2.29-119.50 2.04Q-119.20 1.80-119.20 1.26L-119.20 1.26Q-119.20 0.80-119.45 0.56Q-119.70 0.32-120.14 0.32L-120.14 0.32L-120.42 0.32Q-120.99 0.32-121.37 0.01Q-121.74-0.30-121.74-0.97L-121.74-0.97Q-121.74-1.65-121.40-2.06Q-121.06-2.46-120.21-2.46L-120.21-2.46L-119.61-2.46Q-118.79-2.46-118.15-2.15Q-117.51-1.84-117.07-1.30Q-116.63-0.76-116.39-0.02Q-116.15 0.71-116.15 1.56L-116.15 1.56Q-116.15 2.49-116.40 3.22Q-116.66 3.96-117.19 4.48Q-117.73 5.01-118.55 5.29Q-119.38 5.58-120.50 5.58L-120.50 5.58L-124.01 5.58Z"/><path fill="#000000" opacity="1" d="M-111.75-3.62L-111.75 3.87Q-111.75 5.65-113.47 5.65L-113.47 5.65Q-115.21 5.65-115.21 3.91L-115.21 3.91L-115.21-5.18Q-115.21-6.92-113.54-6.92L-113.54-6.92L-110.02-6.92Q-108.91-6.92-108.08-6.64Q-107.25-6.35-106.72-5.83Q-106.19-5.30-105.93-4.56Q-105.67-3.81-105.67-2.89L-105.67-2.89Q-105.67-2.04-105.91-1.30Q-106.15-0.57-106.60-0.03Q-107.04 0.50-107.68 0.81Q-108.32 1.12-109.14 1.12L-109.14 1.12L-109.74 1.12Q-110.59 1.12-110.93 0.72Q-111.27 0.32-111.27-0.35L-111.27-0.35Q-111.27-1.03-110.89-1.35Q-110.52-1.67-109.95-1.67L-109.95-1.67L-109.67-1.67Q-109.22-1.67-108.98-1.90Q-108.73-2.13-108.73-2.61L-108.73-2.61Q-108.73-3.14-109.03-3.38Q-109.33-3.62-109.88-3.62L-109.88-3.62L-111.75-3.62Z"/><path fill="#000000" opacity="1" d="M-101.45-5.34L-101.45-1.29L-98.22-6.10Q-97.92-6.55-97.52-6.76Q-97.12-6.97-96.68-6.97L-96.68-6.97Q-96.36-6.97-96.07-6.86Q-95.79-6.74-95.56-6.52Q-95.33-6.30-95.19-5.98Q-95.06-5.66-95.06-5.27L-95.06-5.27L-95.06 4.01Q-95.06 4.81-95.54 5.23Q-96.02 5.65-96.68 5.65L-96.68 5.65Q-97.37 5.65-97.86 5.23Q-98.34 4.81-98.34 4.01L-98.34 4.01L-98.34-0.05L-101.56 4.76Q-101.86 5.22-102.28 5.43Q-102.69 5.65-103.12 5.65L-103.12 5.65Q-103.44 5.65-103.73 5.53Q-104.02 5.42-104.25 5.19Q-104.47 4.97-104.61 4.65Q-104.75 4.33-104.75 3.93L-104.75 3.93L-104.75-5.34Q-104.75-6.14-104.26-6.56Q-103.78-6.97-103.12-6.97L-103.12-6.97Q-102.43-6.97-101.94-6.56Q-101.45-6.14-101.45-5.34L-101.45-5.34Z"/><path fill="#000000" opacity="1" d="M-90.18 0.98L-90.18 3.93Q-90.18 4.78-90.69 5.21Q-91.21 5.65-91.90 5.65L-91.90 5.65Q-92.61 5.65-93.12 5.21Q-93.62 4.78-93.62 3.93L-93.62 3.93L-93.62-5.27Q-93.62-6.09-93.12-6.53Q-92.61-6.97-91.90-6.97L-91.90-6.97Q-91.21-6.97-90.69-6.53Q-90.18-6.09-90.18-5.27L-90.18-5.27L-90.18-2.32L-87.36-6.32Q-87.11-6.69-86.80-6.83Q-86.49-6.97-86.03-6.97L-86.03-6.97Q-85.17-6.97-84.70-6.49Q-84.23-6.00-84.23-5.25L-84.23-5.25Q-84.23-4.95-84.32-4.67Q-84.41-4.38-84.62-4.17L-84.62-4.17L-87.52-0.90L-84.61 2.82Q-84.20 3.34-84.20 3.91L-84.20 3.91Q-84.20 4.71-84.69 5.18Q-85.19 5.65-85.99 5.65L-85.99 5.65Q-86.38 5.65-86.73 5.49Q-87.07 5.33-87.32 4.97L-87.32 4.97L-90.18 0.98Z"/><path fill="#000000" opacity="1" d="M-77.54-1.81L-78.45 0.45L-76.78 0.45L-77.54-1.81ZM-75.34 4.53L-75.84 3.16L-79.53 3.16L-80.08 4.53Q-80.33 5.10-80.74 5.37Q-81.14 5.65-81.59 5.65L-81.59 5.65Q-81.94 5.65-82.27 5.53Q-82.60 5.42-82.87 5.20Q-83.13 4.99-83.29 4.69Q-83.45 4.39-83.45 4.01L-83.45 4.01Q-83.45 3.59-83.33 3.32L-83.33 3.32L-79.10-5.94Q-78.89-6.41-78.55-6.69Q-78.22-6.97-77.51-6.97L-77.51-6.97Q-76.83-6.97-76.48-6.69Q-76.14-6.41-75.94-5.93L-75.94-5.93L-72.09 3.32Q-71.97 3.64-71.97 4.01L-71.97 4.01Q-71.97 4.37-72.13 4.67Q-72.29 4.97-72.54 5.19Q-72.80 5.40-73.14 5.52Q-73.48 5.65-73.81 5.65L-73.81 5.65Q-74.35 5.65-74.75 5.37Q-75.14 5.10-75.34 4.53L-75.34 4.53Z"/><path fill="#000000" opacity="1" d=""/><path fill="#000000" opacity="1" d="M-65.04 5.58L-65.04 5.58Q-66.71 5.58-66.71 3.84L-66.71 3.84L-66.71-5.18Q-66.71-6.92-65.01-6.92L-65.01-6.92L-61.42-6.92Q-60.63-6.92-60.21-6.41Q-59.79-5.89-59.79-5.18L-59.79-5.18Q-59.79-4.47-60.21-3.96Q-60.63-3.46-61.42-3.46L-61.42-3.46L-63.25-3.46L-63.25 2.29L-61.39 2.29Q-60.84 2.29-60.54 2.04Q-60.23 1.80-60.23 1.26L-60.23 1.26Q-60.23 0.80-60.48 0.56Q-60.73 0.32-61.18 0.32L-61.18 0.32L-61.46 0.32Q-62.03 0.32-62.40 0.01Q-62.77-0.30-62.77-0.97L-62.77-0.97Q-62.77-1.65-62.44-2.06Q-62.10-2.46-61.25-2.46L-61.25-2.46L-60.64-2.46Q-59.83-2.46-59.19-2.15Q-58.55-1.84-58.10-1.30Q-57.66-0.76-57.42-0.02Q-57.18 0.71-57.18 1.56L-57.18 1.56Q-57.18 2.49-57.44 3.22Q-57.70 3.96-58.23 4.48Q-58.76 5.01-59.59 5.29Q-60.41 5.58-61.53 5.58L-61.53 5.58L-65.04 5.58Z"/><path fill="#000000" opacity="1" d="M-50.74-1.81L-51.64 0.45L-49.98 0.45L-50.74-1.81ZM-48.54 4.53L-49.03 3.16L-52.73 3.16L-53.28 4.53Q-53.53 5.10-53.93 5.37Q-54.34 5.65-54.79 5.65L-54.79 5.65Q-55.14 5.65-55.47 5.53Q-55.80 5.42-56.06 5.20Q-56.33 4.99-56.49 4.69Q-56.65 4.39-56.65 4.01L-56.65 4.01Q-56.65 3.59-56.52 3.32L-56.52 3.32L-52.30-5.94Q-52.09-6.41-51.75-6.69Q-51.41-6.97-50.70-6.97L-50.70-6.97Q-50.03-6.97-49.68-6.69Q-49.34-6.41-49.14-5.93L-49.14-5.93L-45.29 3.32Q-45.16 3.64-45.16 4.01L-45.16 4.01Q-45.16 4.37-45.32 4.67Q-45.48 4.97-45.74 5.19Q-46.00 5.40-46.34 5.52Q-46.67 5.65-47.01 5.65L-47.01 5.65Q-47.54 5.65-47.94 5.37Q-48.34 5.10-48.54 4.53L-48.54 4.53Z"/><path fill="#000000" opacity="1" d="M-34.39-5.27L-34.39 3.93Q-34.39 4.78-34.91 5.21Q-35.42 5.65-36.13 5.65L-36.13 5.65Q-36.82 5.65-37.33 5.21Q-37.83 4.78-37.83 3.93L-37.83 3.93L-37.83 0.96L-40.64 0.96L-40.64 3.93Q-40.64 4.78-41.15 5.21Q-41.67 5.65-42.38 5.65L-42.38 5.65Q-43.07 5.65-43.58 5.21Q-44.08 4.78-44.08 3.93L-44.08 3.93L-44.08-5.27Q-44.08-6.09-43.58-6.53Q-43.07-6.97-42.38-6.97L-42.38-6.97Q-41.67-6.97-41.15-6.53Q-40.64-6.09-40.64-5.27L-40.64-5.27L-40.64-2.29L-37.83-2.29L-37.83-5.27Q-37.83-6.09-37.33-6.53Q-36.82-6.97-36.13-6.97L-36.13-6.97Q-35.42-6.97-34.91-6.53Q-34.39-6.09-34.39-5.27L-34.39-5.27Z"/><path fill="#000000" opacity="1" d="M-29.51 0.98L-29.51 3.93Q-29.51 4.78-30.02 5.21Q-30.54 5.65-31.23 5.65L-31.23 5.65Q-31.94 5.65-32.45 5.21Q-32.95 4.78-32.95 3.93L-32.95 3.93L-32.95-5.27Q-32.95-6.09-32.45-6.53Q-31.94-6.97-31.23-6.97L-31.23-6.97Q-30.54-6.97-30.02-6.53Q-29.51-6.09-29.51-5.27L-29.51-5.27L-29.51-2.32L-26.69-6.32Q-26.44-6.69-26.13-6.83Q-25.82-6.97-25.36-6.97L-25.36-6.97Q-24.50-6.97-24.03-6.49Q-23.56-6.00-23.56-5.25L-23.56-5.25Q-23.56-4.95-23.65-4.67Q-23.74-4.38-23.95-4.17L-23.95-4.17L-26.85-0.90L-23.94 2.82Q-23.53 3.34-23.53 3.91L-23.53 3.91Q-23.53 4.71-24.02 5.18Q-24.52 5.65-25.32 5.65L-25.32 5.65Q-25.71 5.65-26.06 5.49Q-26.40 5.33-26.65 4.97L-26.65 4.97L-29.51 0.98Z"/><path fill="#000000" opacity="1" d="M-23.19-0.67L-23.19-0.67Q-23.19-2.00-22.69-3.16Q-22.20-4.31-21.33-5.18Q-20.46-6.05-19.30-6.55Q-18.15-7.04-16.82-7.04L-16.82-7.04Q-15.49-7.04-14.32-6.55Q-13.16-6.05-12.30-5.18Q-11.44-4.31-10.93-3.16Q-10.43-2.00-10.43-0.67L-10.43-0.67Q-10.43 0.66-10.93 1.81Q-11.44 2.97-12.30 3.84Q-13.16 4.71-14.32 5.20Q-15.49 5.70-16.82 5.70L-16.82 5.70Q-18.15 5.70-19.30 5.20Q-20.46 4.71-21.33 3.84Q-22.20 2.97-22.69 1.81Q-23.19 0.66-23.19-0.67ZM-19.69-0.62L-19.69-0.62Q-19.69-0.02-19.46 0.51Q-19.23 1.03-18.84 1.42Q-18.45 1.81-17.93 2.03Q-17.40 2.26-16.80 2.26L-16.80 2.26Q-16.20 2.26-15.67 2.03Q-15.15 1.81-14.75 1.42Q-14.35 1.03-14.12 0.51Q-13.89-0.02-13.89-0.62L-13.89-0.62Q-13.89-1.22-14.12-1.75Q-14.35-2.29-14.75-2.68Q-15.15-3.07-15.67-3.30Q-16.20-3.53-16.80-3.53L-16.80-3.53Q-17.40-3.53-17.93-3.30Q-18.45-3.07-18.84-2.68Q-19.23-2.29-19.46-1.75Q-19.69-1.22-19.69-0.62Z"/><path fill="#000000" opacity="1" d="M-3.33-3.44L-5.90-3.44L-5.90-1.83L-3.33-1.83Q-2.97-1.83-2.80-2.09Q-2.62-2.36-2.62-2.70L-2.62-2.70Q-2.62-2.98-2.79-3.21Q-2.96-3.44-3.33-3.44L-3.33-3.44ZM-3.33 0.69L-5.90 0.69L-5.90 2.11L-3.33 2.11Q-2.96 2.11-2.79 1.88Q-2.62 1.65-2.62 1.40L-2.62 1.40Q-2.62 1.14-2.79 0.92Q-2.96 0.69-3.33 0.69L-3.33 0.69ZM-9.20 3.82L-9.20-5.18Q-9.20-6.92-7.64-6.92L-7.64-6.92L-2.19-6.92Q-1.54-6.92-1.04-6.64Q-0.54-6.37-0.20-5.92Q0.13-5.46 0.30-4.88Q0.47-4.29 0.47-3.69L0.47-3.69Q0.47-2.62 0.02-1.82Q-0.43-1.01-1.39-0.80L-1.39-0.80Q-0.91-0.74-0.53-0.48Q-0.15-0.21 0.12 0.22Q0.38 0.64 0.53 1.19Q0.68 1.74 0.68 2.35L0.68 2.35Q0.68 3.00 0.51 3.59Q0.33 4.17-0.04 4.62Q-0.42 5.06-1.01 5.32Q-1.61 5.58-2.42 5.58L-2.42 5.58L-7.55 5.58Q-9.20 5.58-9.20 3.82L-9.20 3.82Z"/><path fill="#000000" opacity="1" d="M9.27-3.41L8.01-3.41Q7.29-3.41 6.75-3.17Q6.22-2.94 5.86-2.56Q5.49-2.18 5.32-1.68Q5.14-1.19 5.14-0.67L5.14-0.67Q5.14-0.14 5.32 0.37Q5.49 0.87 5.86 1.25Q6.22 1.64 6.75 1.88Q7.29 2.11 8.00 2.11L8.00 2.11L9.27 2.11Q9.72 2.11 10.04 2.27Q10.36 2.42 10.57 2.66Q10.78 2.90 10.89 3.21Q11.00 3.52 11.00 3.84L11.00 3.84Q11.00 4.53 10.57 5.05Q10.14 5.58 9.27 5.58L9.27 5.58L8.01 5.58Q6.47 5.58 5.30 5.05Q4.13 4.53 3.35 3.66Q2.58 2.79 2.19 1.69Q1.80 0.59 1.80-0.58L1.80-0.58Q1.80-1.75 2.20-2.90Q2.60-4.04 3.42-4.93Q4.23-5.82 5.44-6.37Q6.65-6.92 8.28-6.92L8.28-6.92L9.27-6.92Q9.70-6.92 10.03-6.77Q10.36-6.62 10.58-6.37Q10.80-6.12 10.92-5.81Q11.03-5.50 11.03-5.16L11.03-5.16Q11.03-4.83 10.92-4.51Q10.80-4.19 10.58-3.95Q10.36-3.71 10.03-3.56Q9.70-3.41 9.27-3.41L9.27-3.41Z"/><path fill="#000000" opacity="1" d="M15.65 0.98L15.65 3.93Q15.65 4.78 15.13 5.21Q14.62 5.65 13.92 5.65L13.92 5.65Q13.21 5.65 12.71 5.21Q12.20 4.78 12.20 3.93L12.20 3.93L12.20-5.27Q12.20-6.09 12.71-6.53Q13.21-6.97 13.92-6.97L13.92-6.97Q14.62-6.97 15.13-6.53Q15.65-6.09 15.65-5.27L15.65-5.27L15.65-2.32L18.47-6.32Q18.72-6.69 19.03-6.83Q19.34-6.97 19.80-6.97L19.80-6.97Q20.65-6.97 21.12-6.49Q21.59-6.00 21.59-5.25L21.59-5.25Q21.59-4.95 21.50-4.67Q21.42-4.38 21.20-4.17L21.20-4.17L18.31-0.90L21.22 2.82Q21.63 3.34 21.63 3.91L21.63 3.91Q21.63 4.71 21.13 5.18Q20.63 5.65 19.84 5.65L19.84 5.65Q19.45 5.65 19.10 5.49Q18.75 5.33 18.50 4.97L18.50 4.97L15.65 0.98Z"/><path fill="#000000" opacity="1" d="M26.07-5.34L26.07-1.29L29.30-6.10Q29.60-6.55 30.00-6.76Q30.40-6.97 30.84-6.97L30.84-6.97Q31.16-6.97 31.44-6.86Q31.73-6.74 31.96-6.52Q32.19-6.30 32.32-5.98Q32.46-5.66 32.46-5.27L32.46-5.27L32.46 4.01Q32.46 4.81 31.98 5.23Q31.50 5.65 30.84 5.65L30.84 5.65Q30.15 5.65 29.66 5.23Q29.17 4.81 29.17 4.01L29.17 4.01L29.17-0.05L25.96 4.76Q25.66 5.22 25.24 5.43Q24.82 5.65 24.40 5.65L24.40 5.65Q24.08 5.65 23.78 5.53Q23.49 5.42 23.27 5.19Q23.05 4.97 22.91 4.65Q22.76 4.33 22.76 3.93L22.76 3.93L22.76-5.34Q22.76-6.14 23.25-6.56Q23.74-6.97 24.40-6.97L24.40-6.97Q25.09-6.97 25.58-6.56Q26.07-6.14 26.07-5.34L26.07-5.34Z"/><path fill="#000000" opacity="1" d="M38.42-3.69L39.77-6.09Q40.28-6.97 41.21-6.97L41.21-6.97Q41.54-6.97 41.88-6.83Q42.22-6.69 42.47-6.45Q42.72-6.21 42.88-5.90Q43.03-5.59 43.03-5.25L43.03-5.25Q43.03-4.75 42.75-4.35L42.75-4.35L40.25-0.65L42.75 3.04Q43.03 3.45 43.03 3.93L43.03 3.93Q43.03 4.28 42.87 4.59Q42.70 4.90 42.42 5.14Q42.15 5.38 41.81 5.51Q41.47 5.65 41.14 5.65L41.14 5.65Q40.28 5.65 39.77 4.76L39.77 4.76L38.42 2.38L37.09 4.76Q36.82 5.22 36.47 5.43Q36.11 5.65 35.72 5.65L35.72 5.65Q35.40 5.65 35.07 5.51Q34.73 5.38 34.45 5.14Q34.18 4.90 34.00 4.59Q33.82 4.28 33.82 3.93L33.82 3.93Q33.82 3.50 34.12 3.04L34.12 3.04L36.61-0.65L34.12-4.35Q33.98-4.54 33.89-4.75Q33.80-4.95 33.82-5.18L33.82-5.18Q33.82-5.54 33.97-5.86Q34.12-6.17 34.38-6.42Q34.64-6.67 34.97-6.82Q35.30-6.97 35.67-6.97L35.67-6.97Q36.08-6.97 36.45-6.75Q36.82-6.53 37.09-6.09L37.09-6.09L38.42-3.69Z"/><path fill="#000000" opacity="1" d=""/><path fill="#000000" opacity="1" d="M50.26-6.92L56.40-6.92Q58.10-6.92 58.10-5.18L58.10-5.18L58.10 3.93Q58.10 4.78 57.60 5.20Q57.09 5.63 56.40 5.63L56.40 5.63Q55.71 5.63 55.19 5.20Q54.68 4.78 54.68 3.93L54.68 3.93L54.68-3.46L51.98-3.46L51.98 3.93Q51.98 4.78 51.47 5.20Q50.95 5.63 50.26 5.63L50.26 5.63Q49.57 5.63 49.06 5.20Q48.56 4.78 48.56 3.93L48.56 3.93L48.56-5.18Q48.56-6.92 50.26-6.92L50.26-6.92Z"/><path fill="#000000" opacity="1" d="M63.04-3.62L63.04 3.87Q63.04 5.65 61.32 5.65L61.32 5.65Q59.58 5.65 59.58 3.91L59.58 3.91L59.58-5.18Q59.58-6.92 61.25-6.92L61.25-6.92L64.76-6.92Q65.88-6.92 66.70-6.64Q67.53-6.35 68.06-5.83Q68.59-5.30 68.85-4.56Q69.11-3.81 69.11-2.89L69.11-2.89Q69.11-2.04 68.87-1.30Q68.63-0.57 68.19-0.03Q67.74 0.50 67.10 0.81Q66.46 1.12 65.65 1.12L65.65 1.12L65.04 1.12Q64.19 1.12 63.86 0.72Q63.52 0.32 63.52-0.35L63.52-0.35Q63.52-1.03 63.89-1.35Q64.26-1.67 64.83-1.67L64.83-1.67L65.12-1.67Q65.56-1.67 65.81-1.90Q66.06-2.13 66.06-2.61L66.06-2.61Q66.06-3.14 65.75-3.38Q65.45-3.62 64.90-3.62L64.90-3.62L63.04-3.62Z"/><path fill="#000000" opacity="1" d="M69.82-0.67L69.82-0.67Q69.82-2.00 70.32-3.16Q70.81-4.31 71.68-5.18Q72.55-6.05 73.71-6.55Q74.86-7.04 76.19-7.04L76.19-7.04Q77.52-7.04 78.69-6.55Q79.85-6.05 80.71-5.18Q81.57-4.31 82.08-3.16Q82.58-2.00 82.58-0.67L82.58-0.67Q82.58 0.66 82.08 1.81Q81.57 2.97 80.71 3.84Q79.85 4.71 78.69 5.20Q77.52 5.70 76.19 5.70L76.19 5.70Q74.86 5.70 73.71 5.20Q72.55 4.71 71.68 3.84Q70.81 2.97 70.32 1.81Q69.82 0.66 69.82-0.67ZM73.32-0.62L73.32-0.62Q73.32-0.02 73.55 0.51Q73.78 1.03 74.17 1.42Q74.56 1.81 75.08 2.03Q75.61 2.26 76.21 2.26L76.21 2.26Q76.81 2.26 77.34 2.03Q77.86 1.81 78.26 1.42Q78.66 1.03 78.89 0.51Q79.12-0.02 79.12-0.62L79.12-0.62Q79.12-1.22 78.89-1.75Q78.66-2.29 78.26-2.68Q77.86-3.07 77.34-3.30Q76.81-3.53 76.21-3.53L76.21-3.53Q75.61-3.53 75.08-3.30Q74.56-3.07 74.17-2.68Q73.78-2.29 73.55-1.75Q73.32-1.22 73.32-0.62Z"/><path fill="#000000" opacity="1" d="M92.95 5.58L86.63 5.58L86.63 6.32Q86.63 7.17 86.11 7.60Q85.60 8.03 84.91 8.03L84.91 8.03Q84.21 8.03 83.71 7.60Q83.20 7.17 83.20 6.32L83.20 6.32L83.20 3.85Q83.20 2.40 84.43 2.15L84.43 2.15Q84.77 1.71 85.13 0.95Q85.49 0.20 85.79-0.78Q86.10-1.75 86.30-2.88Q86.50-4.01 86.50-5.18L86.50-5.18Q86.50-6.92 88.21-6.92L88.21-6.92L92.97-6.92Q94.67-6.92 94.67-5.18L94.67-5.18L94.67 2.11Q96.37 2.11 96.37 3.85L96.37 3.85L96.37 6.32Q96.37 7.17 95.87 7.60Q95.36 8.03 94.67 8.03L94.67 8.03Q93.98 8.03 93.46 7.60Q92.95 7.17 92.95 6.32L92.95 6.32L92.95 5.58ZM91.24 2.11L91.24-3.46L89.93-3.46Q89.84-1.74 89.49-0.40Q89.13 0.94 88.55 2.11L88.55 2.11L91.24 2.11Z"/><path fill="#000000" opacity="1" d="M101.61-3.69L102.96-6.09Q103.47-6.97 104.40-6.97L104.40-6.97Q104.73-6.97 105.07-6.83Q105.41-6.69 105.66-6.45Q105.91-6.21 106.07-5.90Q106.22-5.59 106.22-5.25L106.22-5.25Q106.22-5.00 106.15-4.79Q106.08-4.58 105.94-4.35L105.94-4.35L100.28 4.76Q100.03 5.22 99.67 5.43Q99.30 5.65 98.91 5.65L98.91 5.65Q98.59 5.65 98.26 5.51Q97.92 5.38 97.64 5.14Q97.37 4.90 97.19 4.59Q97.01 4.28 97.01 3.93L97.01 3.93Q97.01 3.50 97.31 3.04L97.31 3.04L99.80-0.65L97.31-4.35Q97.17-4.54 97.08-4.75Q96.99-4.95 97.01-5.18L97.01-5.18Q97.01-5.54 97.16-5.86Q97.31-6.17 97.57-6.42Q97.83-6.67 98.16-6.82Q98.49-6.97 98.86-6.97L98.86-6.97Q99.27-6.97 99.64-6.75Q100.01-6.53 100.28-6.09L100.28-6.09L101.61-3.69Z"/><path fill="#000000" opacity="1" d="M111.04 0.98L111.04 3.93Q111.04 4.78 110.52 5.21Q110.01 5.65 109.31 5.65L109.31 5.65Q108.60 5.65 108.10 5.21Q107.59 4.78 107.59 3.93L107.59 3.93L107.59-5.27Q107.59-6.09 108.10-6.53Q108.60-6.97 109.31-6.97L109.31-6.97Q110.01-6.97 110.52-6.53Q111.04-6.09 111.04-5.27L111.04-5.27L111.04-2.32L113.86-6.32Q114.11-6.69 114.42-6.83Q114.73-6.97 115.19-6.97L115.19-6.97Q116.04-6.97 116.51-6.49Q116.98-6.00 116.98-5.25L116.98-5.25Q116.98-4.95 116.89-4.67Q116.80-4.38 116.59-4.17L116.59-4.17L113.70-0.90L116.61 2.82Q117.02 3.34 117.02 3.91L117.02 3.91Q117.02 4.71 116.52 5.18Q116.02 5.65 115.22 5.65L115.22 5.65Q114.83 5.65 114.49 5.49Q114.14 5.33 113.89 4.97L113.89 4.97L111.04 0.98Z"/><path fill="#000000" opacity="1" d="M124.10-3.44L124.10 3.93Q124.10 4.78 123.58 5.21Q123.07 5.65 122.36 5.65L122.36 5.65Q121.67 5.65 121.16 5.21Q120.66 4.78 120.66 3.93L120.66 3.93L120.66-3.44L119.45-3.44Q118.63-3.44 118.18-3.96Q117.73-4.47 117.73-5.18L117.73-5.18Q117.73-5.89 118.18-6.41Q118.63-6.92 119.45-6.92L119.45-6.92L125.27-6.92Q126.09-6.92 126.55-6.41Q127.01-5.89 127.01-5.18L127.01-5.18Q127.01-4.47 126.55-3.96Q126.09-3.44 125.27-3.44L125.27-3.44L124.10-3.44Z"/><path fill="#000000" opacity="1" d="M127.05-0.67L127.05-0.67Q127.05-2.00 127.54-3.16Q128.04-4.31 128.91-5.18Q129.78-6.05 130.93-6.55Q132.09-7.04 133.42-7.04L133.42-7.04Q134.75-7.04 135.91-6.55Q137.07-6.05 137.94-5.18Q138.80-4.31 139.30-3.16Q139.81-2.00 139.81-0.67L139.81-0.67Q139.81 0.66 139.30 1.81Q138.80 2.97 137.94 3.84Q137.07 4.71 135.91 5.20Q134.75 5.70 133.42 5.70L133.42 5.70Q132.09 5.70 130.93 5.20Q129.78 4.71 128.91 3.84Q128.04 2.97 127.54 1.81Q127.05 0.66 127.05-0.67ZM130.54-0.62L130.54-0.62Q130.54-0.02 130.77 0.51Q131.00 1.03 131.39 1.42Q131.78 1.81 132.31 2.03Q132.83 2.26 133.44 2.26L133.44 2.26Q134.04 2.26 134.56 2.03Q135.09 1.81 135.49 1.42Q135.89 1.03 136.12 0.51Q136.35-0.02 136.35-0.62L136.35-0.62Q136.35-1.22 136.12-1.75Q135.89-2.29 135.49-2.68Q135.09-3.07 134.56-3.30Q134.04-3.53 133.44-3.53L133.44-3.53Q132.83-3.53 132.31-3.30Q131.78-3.07 131.39-2.68Q131.00-2.29 130.77-1.75Q130.54-1.22 130.54-0.62Z"/><path fill="#000000" opacity="1" d="M146.91-3.44L144.33-3.44L144.33-1.83L146.91-1.83Q147.26-1.83 147.44-2.09Q147.62-2.36 147.62-2.70L147.62-2.70Q147.62-2.98 147.45-3.21Q147.28-3.44 146.91-3.44L146.91-3.44ZM146.91 0.69L144.33 0.69L144.33 2.11L146.91 2.11Q147.28 2.11 147.45 1.88Q147.62 1.65 147.62 1.40L147.62 1.40Q147.62 1.14 147.45 0.92Q147.28 0.69 146.91 0.69L146.91 0.69ZM141.03 3.82L141.03-5.18Q141.03-6.92 142.59-6.92L142.59-6.92L148.04-6.92Q148.70-6.92 149.20-6.64Q149.69-6.37 150.03-5.92Q150.37-5.46 150.54-4.88Q150.71-4.29 150.71-3.69L150.71-3.69Q150.71-2.62 150.25-1.82Q149.80-1.01 148.84-0.80L148.84-0.80Q149.32-0.74 149.70-0.48Q150.09-0.21 150.35 0.22Q150.62 0.64 150.77 1.19Q150.92 1.74 150.92 2.35L150.92 2.35Q150.92 3.00 150.74 3.59Q150.56 4.17 150.19 4.62Q149.82 5.06 149.22 5.32Q148.63 5.58 147.81 5.58L147.81 5.58L142.68 5.58Q141.03 5.58 141.03 3.82L141.03 3.82Z"/></g><g transform="matrix(0.7214438281074851 -1.767e-16 -1.6578e-16 -0.6768365291743089 -15.446472608394021 5.531330243294764)"  >
<clipPath id="imageCrop_32746">
	<rect x="-26.23715775627333" y="-8.172328183945066" width="52.47431551254666" height="16.34465636789013" />
</clipPath>
	<image style="stroke: none; stroke-width: 0; stroke-dasharray: none; stroke-linecap: butt; stroke-dashoffset: 0; stroke-linejoin: miter; stroke-miterlimit: 4; fill: rgb(0,0,0); fill-rule: nonzero; opacity: 1;"  xlink:href="https://uploads.turbologo.ru/uploads/upload/image/762913/regular_1192c542-cf04-4219-bc83-baf90423fe4b.jpg" x="-738.4740883704839" y="-174.78170027052784" width="820" height="323" clip-path="url(#imageCrop_32746)" ></image>
</g>
<g transform="matrix(0.0211036908269728 -5.17e-18 5.17e-18 0.0211036908269728 281.1573091257204 171.67086430964417)"  >
	<image style="stroke: none; stroke-width: 0; stroke-dasharray: none; stroke-linecap: butt; stroke-dashoffset: 0; stroke-linejoin: miter; stroke-miterlimit: 4; fill: rgb(0,0,0); fill-rule: nonzero; opacity: 1;"  xlink:href="https://uploads.turbologo.ru/uploads/upload/file/836863/c44eb726bdc8719ca7baf3047ab8218b.png" x="-840" y="-378" width="1680" height="756"></image>
</g>
<g transform="matrix(0.02069319087234378 -5.07e-18 5.07e-18 0.02069319087234378 280.8124891638321 157.51562490140745)"  >
	<image style="stroke: none; stroke-width: 0; stroke-dasharray: none; stroke-linecap: butt; stroke-dashoffset: 0; stroke-linejoin: miter; stroke-miterlimit: 4; fill: rgb(0,0,0); fill-rule: nonzero; opacity: 1;"  xlink:href="https://uploads.turbologo.ru/uploads/upload/file/836863/c44eb726bdc8719ca7baf3047ab8218b.png" x="-840" y="-378" width="1680" height="756"></image>
</g>
</svg>