<svg width="171" height="24" viewBox="0 0 171 24" fill="none" xmlns="http://www.w3.org/2000/svg">
<path fill-rule="evenodd" clip-rule="evenodd" d="M41.5022 5.74406H31.9595V17.7413H37.3386C40.3025 17.7413 42.3243 16.5612 42.3243 13.8864C42.3243 11.5558 40.9692 10.1004 37.8007 10.1004H34.9489V8.48572H41.4943V5.74406H41.5022ZM37.6631 12.6651C38.6583 12.6651 39.2227 13.025 39.2227 13.8314C39.2227 14.6869 38.554 14.9957 37.6493 14.9957H34.9489V12.6651H37.6631ZM52.9723 17.7374H56.1408L51.0272 5.74012H48.14L42.9655 17.7374H46.0493L46.8557 15.749H52.166L52.9723 17.7374ZM49.5285 9.25669L51.1216 13.1902H47.9178L49.5285 9.25669ZM65.4062 17.7374H68.4035V5.74012H65.4062V10.2853L60.4382 10.2676V5.74406H57.4388V17.7413H60.4382V13.0938L65.4062 13.1115V17.7374V17.7374ZM74.0737 5.74012H71.0764V17.7374H74.0737V14.1972L75.3423 12.7929L78.8195 17.7275H82.6566L77.7397 10.9088L82.4855 5.74406H78.6818L74.0737 11.0032V5.74406V5.74012ZM99.6081 5.74012H96.068L93.5505 9.54384L91.0016 5.74406H87.4614L91.5916 11.6542L87.2648 17.7374H90.8049L93.4954 13.7271L96.1683 17.7374H99.7084L95.4465 11.6542L99.6081 5.75389V5.74012ZM109.194 17.7374H112.191V5.74012H102.855V7.09325C102.855 14.0477 102.444 14.9406 100.987 14.9406C100.838 14.9432 100.69 14.9373 100.542 14.9229V17.7374C100.982 17.8262 101.429 17.8717 101.878 17.8731C103.626 17.8731 105.581 17.1709 105.733 10.7927L105.784 8.65683H109.194V17.7374V17.7374ZM125.912 17.7374H128.911V5.74012H125.919V17.7374H125.912ZM119.821 12.197C121.207 12.197 121.654 12.6769 121.654 13.5737C121.654 14.5571 121.189 15.0822 119.821 15.0822H117.946V12.197H119.821ZM117.946 5.74406H114.955V17.7413H119.821C122.989 17.7413 124.737 16.3528 124.737 13.5265C124.737 10.9225 123.074 9.5517 119.872 9.5517H117.946V5.74406ZM139.592 17.7413H142.59V5.74406H139.598V10.2853L134.63 10.2676V5.74406H131.631V17.7413H134.63V13.0938L139.598 13.1115V17.7374L139.592 17.7413ZM144.608 11.7446C144.608 15.4815 147.263 18.0147 151.033 18.0147C154.803 18.0147 157.456 15.4461 157.456 11.7446C157.456 8.0078 154.801 5.47461 151.033 5.47461C147.212 5.47461 144.608 8.11203 144.608 11.7446ZM147.691 11.7446C147.691 9.68938 149.045 8.21627 151.035 8.21627C152.953 8.21627 154.378 9.68938 154.378 11.7446C154.378 13.7999 153.094 15.273 151.035 15.273C149.082 15.273 147.691 13.7999 147.691 11.7446ZM159.474 17.7413H165.213C167.92 17.7413 169.89 16.695 169.89 14.1775C169.89 12.6867 169.137 11.6935 167.853 11.247C168.948 10.7672 169.497 9.99816 169.497 8.81613C169.497 7.01655 168.482 5.74799 165.351 5.74799H159.48V17.7452L159.474 17.7413ZM165.076 12.8244C166.293 12.8244 166.773 13.1843 166.773 14.0241C166.773 14.8974 166.183 15.2573 165.093 15.2573H162.478V12.8205L165.076 12.8244ZM164.879 8.23201C166.028 8.23201 166.403 8.62536 166.403 9.32946C166.403 10.0336 165.955 10.5095 164.93 10.5095H162.478V8.22807L164.879 8.23201Z" fill="black"/>
<path fill-rule="evenodd" clip-rule="evenodd" d="M17.4588 23.9973H24.4231C24.5072 24.0046 24.5917 23.989 24.6677 23.9521C24.7436 23.9153 24.8082 23.8586 24.8546 23.7881C24.9009 23.7175 24.9274 23.6357 24.931 23.5514C24.9347 23.4671 24.9155 23.3833 24.8755 23.309L20.9046 15.0486C20.6942 14.612 20.3991 14.3917 19.7835 14.3917H15.5511L24.4959 0.762043C24.5489 0.685449 24.5787 0.59525 24.5818 0.502187C24.585 0.409124 24.5613 0.317119 24.5136 0.237126C24.466 0.157134 24.3963 0.0925258 24.313 0.050995C24.2296 0.0094642 24.1361 -0.0072392 24.0435 0.00287387H16.855C16.6407 -0.00376506 16.4286 0.0475405 16.241 0.151383C16.0533 0.255225 15.8972 0.407757 15.7891 0.592902L11.8437 6.60922L8.97226 0.646004C8.89667 0.445457 8.75848 0.274601 8.57816 0.158759C8.39785 0.0429177 8.185 -0.0117446 7.97118 0.00287387H1.00689C0.922987 -0.0037204 0.838855 0.0123314 0.763277 0.049353C0.687699 0.0863746 0.623446 0.143008 0.577228 0.21334C0.53101 0.283672 0.504521 0.365122 0.500529 0.449186C0.496537 0.53325 0.515187 0.616844 0.554532 0.69124L4.52542 8.95163C4.73586 9.38628 5.03088 9.60656 5.64647 9.60656H9.87894L0.934117 23.2382C0.881877 23.3151 0.852704 23.4053 0.850036 23.4982C0.847368 23.5912 0.871315 23.6829 0.919057 23.7627C0.966799 23.8425 1.03635 23.907 1.11951 23.9485C1.20267 23.9901 1.29597 24.007 1.38844 23.9973H8.57498C8.78931 24.004 9.00145 23.9527 9.18906 23.8488C9.37667 23.745 9.53279 23.5925 9.64096 23.4073L13.5882 17.389L16.4617 23.3542C16.5371 23.5541 16.6747 23.7245 16.8542 23.8402C17.0337 23.956 17.2457 24.0111 17.4588 23.9973V23.9973Z" fill="url(#paint0_linear_261_2025)"/>
<defs>
<linearGradient id="paint0_linear_261_2025" x1="1.97257" y1="5.15775" x2="23.6443" y2="18.9605" gradientUnits="userSpaceOnUse">
<stop stop-color="#00D5D9"/>
<stop offset="1" stop-color="#F000EC"/>
</linearGradient>
</defs>
</svg>
