<svg width="158" height="56" viewBox="0 0 158 56" fill="none" xmlns="http://www.w3.org/2000/svg">
<path fill-rule="evenodd" clip-rule="evenodd" d="M83.0019 36.9361L83.012 36.3537C84.034 36.3263 84.7018 36.1413 85.0357 35.7998C85.3696 35.4584 85.5315 34.7927 85.5315 33.814V20.9067C85.5315 19.9087 85.3696 19.244 85.0357 18.9117C84.7018 18.5793 84.0238 18.3944 83.0019 18.3385V17.7571H96.763L97.279 22.8001H96.763C96.3481 21.4111 95.7916 20.4182 95.0934 19.8213C94.3852 19.2206 93.4239 18.9208 92.2198 18.9208H90.014C89.2956 18.9208 88.8301 19.0224 88.6075 19.2257C88.3849 19.429 88.2635 19.9656 88.2635 20.8244V26.3125H89.7812C92.8471 26.3125 95.0429 26.714 96.3886 27.5229C97.7344 28.3319 98.4022 29.6338 98.4022 31.4307C98.4022 33.2875 97.7748 34.6677 96.5303 35.5732C95.2857 36.4787 93.3733 36.9269 90.8032 36.9269L83.0019 36.9361ZM88.2635 34.4461C88.2635 34.9909 88.3748 35.3608 88.5873 35.5458C88.7998 35.7307 89.3765 35.8273 90.2771 35.8273H90.8234C92.321 35.8273 93.4644 35.4641 94.2536 34.7378C95.0428 34.0121 95.4476 32.9633 95.4476 31.5963C95.4476 30.1735 95.0024 29.1155 94.1322 28.4326C93.262 27.7496 91.8859 27.402 90.0342 27.402H89.4676C88.9009 27.402 88.5569 27.4528 88.4355 27.5595C88.3141 27.6662 88.2635 27.9427 88.2635 28.4041V34.4461Z" fill="#004017"/>
<path fill-rule="evenodd" clip-rule="evenodd" d="M104.625 29.5088H111.01L107.934 21.4718L104.625 29.5088ZM99.1206 36.9361V36.3537C99.6771 36.3354 100.132 36.1647 100.466 35.8456C100.8 35.5264 101.185 34.8709 101.589 33.8963L108.46 17.4319H109.047L115.705 34.1951C116.029 35.0356 116.362 35.6077 116.686 35.9228C117.01 36.2379 117.435 36.3893 117.961 36.3893H118.103V36.9432H111.111V36.3537C111.829 36.3354 112.315 36.2389 112.578 36.0631C112.841 35.8872 112.973 35.5783 112.973 35.1341C112.971 34.9821 112.954 34.8305 112.922 34.6819C112.901 34.5308 112.86 34.3832 112.801 34.2428L111.394 30.6176H104.23L103.047 33.6615C102.928 33.9422 102.833 34.2326 102.763 34.5294C102.701 34.7442 102.667 34.9663 102.662 35.19C102.662 35.5874 102.804 35.8781 103.097 36.0671C103.391 36.2562 103.856 36.3537 104.463 36.3537H104.625V36.9361H99.1206Z" fill="#004017"/>
<path fill-rule="evenodd" clip-rule="evenodd" d="M118.852 36.9361L118.862 36.3537C119.914 36.3172 120.612 36.1322 120.936 35.7907C121.26 35.4492 121.432 34.7835 121.432 33.7814V20.922C121.432 19.9476 121.26 19.287 120.916 18.9401C120.582 18.5936 119.884 18.3954 118.852 18.3395V17.7582H126.754V18.3395C125.732 18.3954 125.044 18.5895 124.71 18.9218C124.376 19.2542 124.204 19.9199 124.204 20.922V25.6936C124.204 26.0534 124.265 26.2891 124.366 26.3999C124.467 26.5107 124.68 26.5707 124.994 26.5707H132.42C132.694 26.5707 132.876 26.5066 132.967 26.3816C133.058 26.2566 133.098 26.0025 133.098 25.6234V20.922C133.098 19.9473 132.926 19.2908 132.603 18.9493C132.279 18.6078 131.591 18.4086 130.518 18.3537V17.7582H138.451V18.3537C137.419 18.3815 136.731 18.5587 136.387 18.8853C136.043 19.2176 135.871 19.8914 135.871 20.9179V33.7814C135.871 34.7744 136.043 35.4441 136.397 35.7907C136.751 36.1373 137.429 36.3263 138.451 36.3537V36.9361H130.518L130.528 36.3537C131.56 36.3263 132.248 36.1413 132.582 35.7998C132.916 35.4584 133.098 34.7927 133.098 33.8089V28.524C133.098 28.1642 133.048 27.9288 132.947 27.8177C132.856 27.7018 132.673 27.6469 132.42 27.6469H124.973C124.68 27.6469 124.488 27.711 124.376 27.836C124.265 27.961 124.204 28.1917 124.204 28.524V33.7764C124.204 34.7693 124.366 35.434 124.7 35.7714C125.034 36.1088 125.712 36.3029 126.754 36.3487V36.931L118.852 36.9361Z" fill="#004017"/>
<path fill-rule="evenodd" clip-rule="evenodd" d="M146.202 26.7648C146.263 26.7739 146.333 26.779 146.404 26.783C146.475 26.7871 146.596 26.7922 146.728 26.7922C147.672 26.7922 148.431 26.5259 149.005 25.9934C149.592 25.4622 150.118 24.5275 150.583 23.1893C151.433 20.7421 152.185 19.161 152.84 18.4462C153.14 18.1007 153.513 17.8254 153.93 17.6395C154.348 17.4536 154.801 17.3616 155.258 17.3699C155.84 17.3537 156.408 17.5505 156.857 17.9238C157.302 18.2937 157.524 18.7341 157.524 19.245C157.538 19.6257 157.404 19.9968 157.15 20.2796C157.027 20.4114 156.878 20.5156 156.713 20.5857C156.547 20.6557 156.368 20.69 156.189 20.6862C155.825 20.6862 155.44 20.5063 155.005 20.1455C154.57 19.7847 154.226 19.6058 153.963 19.6058C153.609 19.6058 153.305 19.7898 153.032 20.1648C152.759 20.5398 152.374 21.4718 151.848 22.9637C151.383 24.2849 150.988 25.2179 150.654 25.7769C150.338 26.306 149.926 26.7711 149.44 27.1479C150.806 27.879 152.472 29.7761 154.438 32.8393C155.035 33.7594 155.491 34.4569 155.804 34.9319C156.118 35.3842 156.422 35.7033 156.725 35.8883C157.029 36.0732 157.454 36.2257 158 36.3405V36.9229H153.558C151.312 33.0148 149.784 30.579 148.974 29.6155C148.155 28.65 147.416 28.1652 146.728 28.1652C146.647 28.1652 146.556 28.1652 146.465 28.1652C146.374 28.1652 146.293 28.1795 146.202 28.1886V33.7641C146.202 34.7571 146.374 35.4218 146.728 35.7592C147.082 36.0966 147.801 36.2907 148.903 36.3364L148.914 36.9188H140.566V36.3537C141.649 36.3263 142.367 36.1505 142.731 35.8141C143.095 35.4777 143.268 34.7977 143.268 33.7814V20.9128C143.268 19.9381 143.085 19.2775 142.731 18.9259C142.377 18.5742 141.649 18.3862 140.566 18.3395V17.7581H148.914L148.903 18.3395C147.831 18.3771 147.113 18.561 146.748 18.9035C146.384 19.246 146.202 19.9097 146.202 20.9128V26.7648Z" fill="#004017"/>
<path fill-rule="evenodd" clip-rule="evenodd" d="M89.9836 50.6584L90.1455 50.8474C89.8195 51.3616 89.3753 51.7896 88.8504 52.0955C88.3447 52.3715 87.7765 52.5115 87.201 52.502C86.0981 52.502 85.2178 52.1592 84.5601 51.4735C83.8923 50.7895 83.5685 49.885 83.5685 48.764C83.5685 47.643 83.9125 46.7314 84.6006 46.0077C85.2886 45.2841 86.1791 44.9294 87.2516 44.9294C87.6882 44.9317 88.1218 45.0024 88.5367 45.1388C88.7775 45.2265 89.0244 45.2965 89.2753 45.3481C89.3205 45.3481 89.3652 45.3392 89.4069 45.3217C89.4486 45.3043 89.4864 45.2787 89.5182 45.2465C89.581 45.1729 89.6136 45.0781 89.6093 44.9812H89.8015L90.0039 47.3289H89.7914C89.589 46.6704 89.2956 46.1714 88.8908 45.8289C88.4841 45.485 87.9652 45.304 87.4338 45.3207C87.0615 45.3124 86.6924 45.3923 86.3566 45.5541C86.0208 45.7158 85.7277 45.9548 85.5011 46.2516C85.0053 46.8726 84.7625 47.6806 84.7625 48.6817C84.7625 49.6827 85.0053 50.4877 85.491 51.1147C85.7064 51.4119 85.9899 51.6525 86.3175 51.8163C86.6451 51.9801 87.0072 52.0623 87.3731 52.0558C87.8581 52.0645 88.3377 51.9527 88.7694 51.7306C89.1742 51.5152 89.5789 51.1578 89.9836 50.6584Z" fill="#004017"/>
<path fill-rule="evenodd" clip-rule="evenodd" d="M90.4592 52.3343L90.4693 52.1148C90.874 52.1036 91.1472 52.0345 91.2889 51.9044C91.4305 51.7743 91.4912 51.5243 91.4912 51.1544V46.2761C91.4912 45.899 91.4204 45.647 91.2889 45.522C91.1573 45.3969 90.874 45.3258 90.4592 45.3055V45.0849H96.0344L96.2469 46.9916H96.0344C95.8624 46.4661 95.6398 46.0911 95.3565 45.8655C95.0732 45.6398 94.6785 45.5311 94.1929 45.5311H93.3024C93.009 45.5311 92.8269 45.5697 92.7257 45.648C92.6245 45.7262 92.5941 45.9275 92.5941 46.2527V48.328H93.2012C94.4458 48.328 95.3362 48.4794 95.8826 48.7854C96.429 49.0913 96.6921 49.5832 96.6921 50.2621C96.6921 50.9633 96.4392 51.4854 95.9332 51.8282C95.4273 52.1687 94.6583 52.3364 93.6161 52.3364L90.4592 52.3343ZM92.5941 51.3932C92.5941 51.5965 92.6346 51.7378 92.7257 51.8089C92.8168 51.88 93.0394 51.9156 93.4036 51.9156H93.6262C94.2333 51.9156 94.6988 51.7781 95.0226 51.503C95.3362 51.2296 95.4981 50.8332 95.4981 50.3159C95.4981 49.7773 95.316 49.3789 94.9619 49.1207C94.6077 48.8626 94.0613 48.7315 93.3126 48.7315H93.0798C92.8471 48.7315 92.7156 48.7508 92.665 48.7904C92.6144 48.8301 92.5941 48.9358 92.5941 49.1106V51.3932Z" fill="#004017"/>
<path fill-rule="evenodd" clip-rule="evenodd" d="M97.2486 52.3343V52.1148C97.6433 52.0965 97.8962 52.0274 98.0177 51.9044C98.1391 51.7814 98.1897 51.5314 98.1897 51.1544V46.276C98.1897 45.9051 98.129 45.6551 98.0075 45.528C97.8861 45.401 97.6331 45.3248 97.2486 45.3044V45.0839H102.733L102.814 46.6866H102.622C102.551 46.2266 102.429 45.9142 102.257 45.7496C102.075 45.5849 101.762 45.5036 101.296 45.5036H99.6771C99.4848 45.5036 99.3634 45.529 99.3027 45.5839C99.242 45.6388 99.2116 45.7811 99.2116 46.0169V47.9702C99.2028 48.0673 99.2203 48.1649 99.2622 48.2528C99.2926 48.2965 99.3735 48.3178 99.5152 48.3178H100.8C101.306 48.3178 101.63 48.2477 101.782 48.1064C101.934 47.9652 102.004 47.6999 102.035 47.3015H102.227V49.7894H102.035C102.004 49.3697 101.923 49.0892 101.772 48.9459C101.62 48.8026 101.296 48.7315 100.8 48.7315H99.5051C99.3837 48.7315 99.3027 48.7508 99.2724 48.7874C99.242 48.8239 99.2116 48.9215 99.2116 49.079V51.2448C99.2116 51.5158 99.242 51.6903 99.3027 51.7682C99.3634 51.8461 99.4849 51.8848 99.667 51.8841H101.165C101.762 51.8841 102.197 51.7916 102.46 51.6087C102.723 51.4257 102.966 51.0405 103.188 50.4592L103.37 50.5608L102.864 52.3384L97.2486 52.3343Z" fill="#004017"/>
<path fill-rule="evenodd" clip-rule="evenodd" d="M106.264 48.3036C106.252 48.3992 106.278 48.4957 106.335 48.5729C106.407 48.6284 106.497 48.6548 106.588 48.6471C107.236 48.6471 107.721 48.5116 108.045 48.2406C108.369 47.9682 108.531 47.5637 108.531 47.021C108.531 46.5101 108.389 46.1236 108.106 45.8614C107.833 45.6022 107.408 45.4711 106.851 45.4711C106.629 45.4711 106.467 45.5077 106.386 45.5809C106.305 45.654 106.264 45.8217 106.264 46.089V48.3036ZM104.17 52.3343V52.1148C104.585 52.1077 104.848 52.0345 104.969 51.8912C105.091 51.7479 105.151 51.4298 105.151 50.9328V46.2262C105.151 45.8441 105.091 45.6012 104.969 45.4945C104.848 45.3878 104.574 45.3268 104.17 45.3065V45.0859H107.215C108.025 45.0859 108.632 45.2455 109.057 45.5616C109.482 45.8776 109.674 46.3451 109.674 46.958C109.688 47.3807 109.568 47.7968 109.33 48.1461C109.086 48.4832 108.737 48.7289 108.339 48.8443C108.107 48.9124 107.87 48.958 107.63 48.9805C107.27 49.0144 106.909 49.029 106.548 49.0242C106.527 49.0245 106.507 49.0228 106.487 49.0191C106.474 49.0165 106.46 49.0148 106.446 49.014C106.365 49.014 106.315 49.0262 106.295 49.0506C106.268 49.1039 106.257 49.164 106.264 49.2234V50.9511C106.264 51.4349 106.325 51.7462 106.446 51.8851C106.568 52.0233 106.851 52.0985 107.296 52.1128V52.3323L104.17 52.3343Z" fill="#004017"/>
<path fill-rule="evenodd" clip-rule="evenodd" d="M110.14 52.3343V52.1148C110.565 52.0965 110.838 52.0274 110.969 51.9044C111.101 51.7814 111.162 51.5314 111.162 51.1544V46.276C111.162 45.9051 111.091 45.6551 110.969 45.528C110.848 45.401 110.554 45.3248 110.14 45.3044V45.0839H116.089L116.18 46.6866H115.968C115.887 46.2262 115.755 45.9132 115.563 45.7496C115.371 45.5859 115.027 45.5036 114.531 45.5036H112.77C112.568 45.5036 112.426 45.529 112.366 45.5839C112.305 45.6388 112.265 45.7811 112.265 46.0169V47.9702C112.256 48.0673 112.273 48.1649 112.315 48.2528C112.356 48.2965 112.447 48.3178 112.598 48.3178H113.985C114.531 48.3178 114.885 48.2474 115.047 48.1064C115.209 47.9652 115.3 47.6999 115.32 47.3015H115.533V49.7894H115.32C115.3 49.3697 115.199 49.0892 115.047 48.9459C114.895 48.8026 114.531 48.7315 113.985 48.7315H112.588C112.497 48.7214 112.405 48.741 112.325 48.7874C112.285 48.826 112.265 48.9215 112.265 49.079V51.2448C112.265 51.5172 112.295 51.692 112.366 51.7682C112.437 51.8444 112.558 51.8841 112.76 51.8841H114.389C115.037 51.8841 115.502 51.7923 115.786 51.6087C116.069 51.425 116.332 51.0419 116.575 50.4592L116.767 50.5608L116.221 52.3384L110.14 52.3343Z" fill="#004017"/>
<path fill-rule="evenodd" clip-rule="evenodd" d="M122.029 48.5221H122.069C122.464 48.5221 122.768 48.4296 122.97 48.2457C123.172 48.0617 123.334 47.7192 123.476 47.2182C123.496 47.1267 123.526 46.9895 123.567 46.8035C123.698 46.2161 123.85 45.7964 124.012 45.5474C124.127 45.3604 124.283 45.2022 124.467 45.0849C124.646 44.9818 124.848 44.9281 125.054 44.9294C125.291 44.9175 125.526 44.9835 125.722 45.1175C125.801 45.1745 125.865 45.2498 125.909 45.337C125.953 45.4242 125.976 45.5207 125.975 45.6185C125.978 45.693 125.966 45.7672 125.94 45.837C125.913 45.9067 125.874 45.9706 125.823 46.025C125.782 46.0765 125.729 46.118 125.67 46.1463C125.61 46.1747 125.545 46.1891 125.479 46.1887C125.358 46.1887 125.216 46.1155 125.054 45.9691C124.942 45.8433 124.787 45.7649 124.619 45.7496C124.376 45.7496 124.164 46.1338 123.992 46.9001C123.931 47.147 123.891 47.3452 123.85 47.4875C123.79 47.7494 123.691 48.0008 123.557 48.2335C123.458 48.4121 123.315 48.562 123.142 48.6685C123.547 48.9713 124.002 49.6008 124.508 50.5568C124.7 50.9186 124.852 51.19 124.963 51.376C125.068 51.5822 125.221 51.76 125.408 51.8943C125.602 52.0135 125.82 52.0862 126.046 52.1067V52.3374H124.275C124.251 52.2848 124.224 52.2336 124.194 52.1839C123.172 50.0385 122.494 48.9652 122.15 48.9652H122.029V51.1452C122.029 51.5172 122.1 51.7683 122.231 51.8973C122.363 52.0264 122.646 52.1006 123.061 52.1179V52.3374H119.894V52.1179C120.299 52.107 120.572 52.0393 120.713 51.9146C120.845 51.7865 120.916 51.5314 120.916 51.1463V48.9622H120.764C120.44 48.9622 119.793 49.9846 118.811 52.0325L118.67 52.3374H116.909V52.1179C117.132 52.098 117.347 52.0248 117.536 51.9044C117.725 51.7681 117.88 51.591 117.992 51.3861C118.093 51.2011 118.245 50.9288 118.437 50.567C118.943 49.6109 119.398 48.9815 119.803 48.6786C119.627 48.5691 119.482 48.418 119.378 48.2386C119.244 48.0039 119.145 47.7509 119.084 47.4875C119.044 47.3452 119.003 47.147 118.943 46.9001C118.771 46.1338 118.558 45.7496 118.315 45.7496C118.148 45.7649 117.992 45.8433 117.88 45.9691C117.718 46.1155 117.577 46.1887 117.455 46.1887C117.39 46.1905 117.325 46.1771 117.265 46.1497C117.205 46.1222 117.153 46.0813 117.111 46.0301C117.016 45.92 116.966 45.7783 116.97 45.6327C116.969 45.5339 116.991 45.4363 117.035 45.3479C117.079 45.2596 117.143 45.183 117.223 45.1246C117.414 44.9879 117.646 44.9202 117.88 44.9325C118.055 44.9302 118.228 44.9684 118.386 45.0443C118.547 45.1248 118.689 45.2396 118.801 45.3807C119.014 45.6388 119.196 46.1053 119.358 46.7761C119.398 46.9794 119.439 47.1349 119.469 47.2365C119.6 47.7304 119.772 48.0688 119.965 48.2528C120.157 48.4368 120.471 48.5272 120.875 48.5272H120.916V46.2781C120.916 45.9102 120.845 45.6602 120.713 45.5281C120.582 45.3959 120.299 45.3248 119.894 45.3065V45.0859H123.061V45.3065C122.646 45.3207 122.373 45.3898 122.241 45.5189C122.11 45.648 122.029 45.9 122.029 46.2781V48.5221Z" fill="#004017"/>
<path fill-rule="evenodd" clip-rule="evenodd" d="M133.625 52.3343V52.1148C134.039 52.1006 134.303 52.0304 134.434 51.9014C134.566 51.7723 134.616 51.5213 134.616 51.1422V46.2821C134.616 45.9142 134.555 45.6642 134.424 45.5331C134.292 45.402 134.019 45.3298 133.625 45.3065V45.0859H136.68V45.3065C136.286 45.3268 136.023 45.401 135.891 45.526C135.76 45.651 135.699 45.903 135.699 46.2821V48.0851C135.688 48.1785 135.709 48.273 135.76 48.3524C135.829 48.405 135.916 48.4283 136.002 48.4174H138.876C138.915 48.4216 138.954 48.4173 138.99 48.4048C139.027 48.3924 139.06 48.372 139.089 48.3453C139.129 48.2556 139.147 48.157 139.139 48.0587V46.2821C139.139 45.9142 139.068 45.6662 138.947 45.5372C138.825 45.4081 138.552 45.3339 138.137 45.3115V45.0859H141.203V45.3115C140.809 45.3217 140.546 45.3895 140.414 45.5148C140.283 45.6408 140.212 45.8959 140.212 46.2852V51.1452C140.212 51.5202 140.283 51.7733 140.414 51.9044C140.546 52.0355 140.809 52.1077 141.203 52.1178V52.3374H138.137L138.148 52.1178C138.542 52.1067 138.805 52.0375 138.937 51.9075C139.068 51.7774 139.139 51.5274 139.139 51.1554V49.1573C139.15 49.0638 139.129 48.9694 139.078 48.89C139.048 48.8463 138.977 48.826 138.876 48.826H135.992C135.951 48.8211 135.909 48.8249 135.869 48.8371C135.828 48.8494 135.791 48.8698 135.76 48.8971C135.711 48.9745 135.689 49.0662 135.699 49.1573V51.1422C135.699 51.5175 135.76 51.7689 135.881 51.8963C136.013 52.0254 136.276 52.0995 136.68 52.1148V52.3343H133.625Z" fill="#004017"/>
<path fill-rule="evenodd" clip-rule="evenodd" d="M141.851 52.3343L141.861 52.1148C142.276 52.1006 142.549 52.0304 142.681 51.9014C142.812 51.7723 142.883 51.5213 142.883 51.1442V46.2821C142.883 45.9142 142.812 45.6642 142.681 45.5331C142.549 45.402 142.266 45.3298 141.851 45.3065V45.0859H144.998V45.3065C144.593 45.3268 144.32 45.401 144.188 45.526C144.057 45.651 143.986 45.9051 143.986 46.2821V50.5659L147.527 46.2527C147.527 45.8949 147.457 45.652 147.325 45.526C147.193 45.4 146.91 45.3288 146.495 45.3115V45.0859H149.652V45.3115C149.248 45.3217 148.974 45.3895 148.833 45.5148C148.701 45.6388 148.63 45.8959 148.63 46.2831V51.1452C148.63 51.5182 148.701 51.7713 148.843 51.9024C148.984 52.0335 149.248 52.1056 149.652 52.1158V52.3353H146.495V52.1158C146.91 52.1046 147.183 52.0355 147.325 51.9054C147.467 51.7753 147.527 51.5253 147.527 51.1554V46.8706L143.986 51.1686C143.986 51.5334 144.057 51.7784 144.188 51.9014C144.32 52.0243 144.583 52.0965 144.998 52.1148V52.3343H141.851Z" fill="#004017"/>
<path fill-rule="evenodd" clip-rule="evenodd" d="M150.087 52.3343V52.1148C150.512 52.1006 150.786 52.0304 150.917 51.9014C151.049 51.7723 151.109 51.5213 151.109 51.1442V46.2822C151.109 45.9142 151.049 45.6642 150.907 45.5331C150.765 45.402 150.502 45.3299 150.087 45.3065V45.0859H153.234V45.3065C152.829 45.3268 152.556 45.401 152.415 45.526C152.273 45.651 152.222 45.9051 152.222 46.2822V50.5659L155.754 46.2527C155.754 45.8949 155.693 45.652 155.551 45.526C155.41 45.4 155.147 45.3288 154.732 45.3116V45.0859H157.889V45.3116C157.474 45.3217 157.201 45.3895 157.069 45.5148C156.927 45.6388 156.867 45.896 156.867 46.2832V51.1452C156.867 51.5182 156.927 51.7713 157.069 51.9024C157.211 52.0335 157.484 52.1057 157.889 52.1158V52.3353H154.732V52.1158C155.147 52.1046 155.42 52.0355 155.551 51.9054C155.683 51.7754 155.754 51.5253 155.754 51.1554V46.8706L152.222 51.1686C152.222 51.5335 152.293 51.7784 152.415 51.9014C152.536 52.0243 152.819 52.0965 153.234 52.1148V52.3343H150.087ZM152.546 43.1377C152.789 43.1377 152.981 43.2827 153.123 43.5726C153.143 43.6133 153.153 43.6428 153.163 43.66C153.215 43.7752 153.304 43.8694 153.416 43.9273C153.603 43.9863 153.798 44.0101 153.993 43.9975C154.181 44.0088 154.37 43.985 154.55 43.9273C154.661 43.8694 154.751 43.7752 154.803 43.66C154.813 43.6458 154.823 43.6184 154.843 43.5777C154.985 43.285 155.187 43.1377 155.43 43.1377C155.478 43.1355 155.527 43.1435 155.572 43.161C155.617 43.1785 155.658 43.2051 155.693 43.2393C155.728 43.2756 155.755 43.3187 155.772 43.3659C155.789 43.4131 155.797 43.4634 155.794 43.5137C155.794 43.7495 155.632 43.9467 155.298 44.1042C154.964 44.2617 154.529 44.34 153.993 44.34C153.457 44.34 153.012 44.2607 152.678 44.1042C152.344 43.9477 152.172 43.7495 152.172 43.5137C152.169 43.4634 152.176 43.4131 152.194 43.3659C152.211 43.3187 152.238 43.2756 152.273 43.2393C152.309 43.2042 152.352 43.177 152.399 43.1595C152.446 43.142 152.496 43.1346 152.546 43.1377Z" fill="#004017"/>
<path fill-rule="evenodd" clip-rule="evenodd" d="M126.744 52.3343L126.754 52.1148C127.139 52.0965 127.392 52.0274 127.513 51.9044C127.634 51.7814 127.695 51.5314 127.695 51.1544V46.276C127.695 45.9051 127.634 45.6551 127.513 45.528C127.392 45.401 127.139 45.3248 126.744 45.3044V45.0839H132.238L132.319 46.6866H132.127C132.056 46.2262 131.935 45.9132 131.753 45.7496C131.57 45.5859 131.257 45.5036 130.801 45.5036H129.183C128.99 45.5036 128.869 45.529 128.808 45.5839C128.747 45.6388 128.717 45.7811 128.717 46.0169V47.9702C128.707 48.0663 128.72 48.1635 128.758 48.2528C128.798 48.2965 128.879 48.3178 129.021 48.3178H130.296C130.801 48.3178 131.135 48.2477 131.277 48.1064C131.419 47.9652 131.51 47.6999 131.53 47.3015H131.732V49.7894H131.53C131.51 49.3697 131.419 49.0892 131.277 48.9459C131.135 48.8026 130.801 48.7315 130.296 48.7315H129.011C128.926 48.7221 128.84 48.7418 128.768 48.7874C128.724 48.878 128.707 48.979 128.717 49.079V51.2448C128.717 51.5158 128.747 51.6903 128.808 51.7682C128.869 51.8461 128.99 51.8848 129.172 51.8841H130.67C131.267 51.8841 131.692 51.7916 131.955 51.6087C132.218 51.4257 132.461 51.0405 132.694 50.4592L132.866 50.5608L132.37 52.3384L126.744 52.3343Z" fill="#004017"/>
<path fill-rule="evenodd" clip-rule="evenodd" d="M83.9934 11.1124V4.45351H84.8232V7.19757H88.0307V4.45351H88.8503V11.1124H88.0307V7.97811H84.8232V11.1124H83.9934ZM89.5384 11.1124L91.9162 4.45351H92.8167L95.3464 11.1124H94.4155L93.6971 9.09402H91.0865L90.4085 11.1124H89.5384ZM91.3192 8.37854H93.434L92.7864 6.53188C92.5941 5.97087 92.4525 5.50743 92.3412 5.14156C92.26 5.57611 92.1484 6.00437 92.0073 6.42314L91.3192 8.37854ZM96.0142 4.45351H96.8338V10.3309H100.062V4.45351H100.881V10.3309H101.448V12.9621H100.719V11.1124H96.0142V4.45351ZM102.419 4.45351H103.168V9.72617L106.467 4.45351H107.286V11.1124H106.537V5.85298L103.249 11.1124H102.419V4.45351ZM108.379 7.87139C108.379 6.76767 108.662 5.90278 109.209 5.27876C109.755 4.65474 110.484 4.34273 111.354 4.34273C111.902 4.3343 112.44 4.4873 112.902 4.7828C113.366 5.07774 113.732 5.50476 113.954 6.0095C114.205 6.57028 114.329 7.17961 114.319 7.79415C114.328 8.41888 114.196 9.03761 113.934 9.60422C113.709 10.1081 113.334 10.5301 112.861 10.8126C112.404 11.0811 111.883 11.2215 111.354 11.2191C110.798 11.2305 110.252 11.0752 109.785 10.773C109.323 10.4705 108.958 10.0403 108.733 9.53409C108.498 9.01155 108.378 8.44465 108.379 7.87139ZM109.229 7.88664C109.229 8.6875 109.431 9.31829 109.836 9.77902C110.019 10.0008 110.25 10.1781 110.511 10.2977C110.772 10.4174 111.057 10.4763 111.344 10.4701C111.634 10.4762 111.922 10.4167 112.187 10.2961C112.451 10.1754 112.685 9.99662 112.872 9.77292C113.266 9.30847 113.469 8.64786 113.469 7.79212C113.481 7.30754 113.395 6.82555 113.216 6.37537C113.061 5.99688 112.801 5.6714 112.467 5.43832C112.138 5.21646 111.75 5.1002 111.354 5.10497C111.074 5.103 110.796 5.15891 110.539 5.26924C110.281 5.37956 110.049 5.54194 109.856 5.74627C109.441 6.17414 109.229 6.88759 109.229 7.88664ZM115.411 11.1124V4.45351H116.231V7.19757H119.438V4.45351H120.258V11.1124H119.438V7.97811H116.231V11.1124H115.411ZM120.946 11.1124L123.324 4.45351H124.235L126.754 11.1124H125.823L125.105 9.09402H122.494L121.816 11.1124H120.946ZM122.737 8.37854H124.852L124.204 6.53188C124.002 5.97087 123.86 5.50743 123.759 5.14156C123.67 5.57521 123.555 6.00315 123.415 6.42314L122.737 8.37854ZM128.059 4.45351H131.935V11.1124H131.105V5.23506H128.879V8.66514C128.891 9.17699 128.861 9.68899 128.788 10.1957C128.745 10.4836 128.61 10.7497 128.403 10.9539C128.201 11.1362 127.936 11.2327 127.665 11.2232C127.441 11.2164 127.219 11.1756 127.007 11.1023L127.159 10.3217C127.262 10.3879 127.381 10.4263 127.503 10.4335C127.586 10.4375 127.668 10.4185 127.742 10.3787C127.815 10.339 127.876 10.2799 127.918 10.2079C128.009 10.0585 128.059 9.69975 128.059 9.14687V4.45351ZM133.321 4.45351H134.141V7.29006H135.618C136.306 7.29006 136.812 7.37644 137.115 7.54922C137.41 7.70241 137.645 7.95038 137.783 8.25353C137.919 8.54077 137.988 8.85527 137.986 9.1733C137.993 9.66944 137.82 10.1513 137.5 10.5291C137.176 10.9183 136.559 11.1124 135.668 11.1124H133.321V4.45351ZM134.141 10.3583H135.638C136.245 10.3583 136.64 10.2425 136.832 10.0118C137.017 9.7724 137.113 9.4761 137.105 9.1733C137.111 8.93153 137.04 8.69422 136.903 8.49541C136.775 8.31258 136.584 8.18401 136.367 8.13462C135.996 8.06784 135.62 8.04025 135.243 8.0523H134.141V10.3583ZM139.008 11.1124V4.45351H139.827V7.19757H143.035V4.45351H143.854V11.1124H143.035V7.97811H139.827V11.1124H139.008ZM145.271 4.45351H146.091V7.29006H147.568C148.539 7.29006 149.177 7.48282 149.48 7.86834C149.78 8.24846 149.941 8.72063 149.935 9.20564C149.93 9.69064 149.758 10.159 149.45 10.5321C149.126 10.9183 148.519 11.1118 147.629 11.1124H145.271V4.45351ZM146.091 10.3583H147.588C148.104 10.3583 148.478 10.2655 148.711 10.0799C148.944 9.89387 149.055 9.59609 149.055 9.18753C149.064 8.93719 148.989 8.69112 148.843 8.4883C148.71 8.30632 148.516 8.17887 148.296 8.12954C147.932 8.06646 147.563 8.04058 147.193 8.0523H146.091V10.3583ZM150.684 4.45351H151.504V11.1124H150.684V4.45351ZM152.91 4.45351H153.659V9.72617L156.958 4.45351H157.777V11.1124H157.029V5.85298L153.74 11.1124H152.91V4.45351ZM156.007 2.85382H156.523C156.504 3.18471 156.368 3.49784 156.138 3.73599C155.903 3.94774 155.594 4.05735 155.278 4.04088C154.96 4.05611 154.648 3.94683 154.408 3.73599C154.195 3.53273 154.064 3.23698 154.023 2.85078H154.539C154.564 3.03045 154.65 3.19601 154.782 3.3193C154.912 3.42838 155.079 3.48394 155.248 3.4748C155.435 3.4882 155.622 3.43496 155.774 3.32438C155.901 3.19736 155.982 3.03204 156.007 2.85382Z" fill="#004017"/>
<path fill-rule="evenodd" clip-rule="evenodd" d="M70.0502 9.89386C69.7466 19.4229 30.3453 19.5753 22.8981 19.7867V0C30.3453 0.211394 69.7466 0.365875 70.0502 9.89386Z" fill="#004017"/>
<path fill-rule="evenodd" clip-rule="evenodd" d="M0 24.41V31.1238C15.1878 31.4073 59.7496 32.511 69.8175 23.3845L69.9288 16.566C64.7481 23.1975 30.9727 25.8359 0 24.41Z" fill="#004017"/>
<path fill-rule="evenodd" clip-rule="evenodd" d="M0 36.5611V43.2749C15.1878 43.5584 59.7496 44.6632 69.8175 35.5356L69.9288 28.7191C64.7481 35.3496 30.9727 37.987 0 36.5611Z" fill="#004017"/>
<path fill-rule="evenodd" clip-rule="evenodd" d="M0 49.0882V55.8061C15.1878 56.0896 59.7496 57.1944 69.8175 48.0668L69.9288 41.2503C64.7481 47.8808 30.9727 50.5182 0 49.0882Z" fill="#004017"/>
</svg>
